<?xml version="1.0" standalone="no"?>
<!DOCTYPE svg PUBLIC "-//W3C//DTD SVG 20010904//EN"
 "http://www.w3.org/TR/2001/REC-SVG-20010904/DTD/svg10.dtd">
<svg version="1.0" xmlns="http://www.w3.org/2000/svg"
 width="64.000000pt" height="64.000000pt" viewBox="0 0 64.000000 64.000000"
 preserveAspectRatio="xMidYMid meet">

<g transform="translate(0.000000,64.000000) scale(0.100000,-0.100000)"
fill="#000000" stroke="none">
<path d="M54 621 c-52 -31 -55 -54 -52 -309 l3 -232 38 -37 37 -38 240 0 240
0 37 38 38 37 3 235 c4 341 20 325 -320 325 -210 0 -236 -2 -264 -19z m526
-311 c0 -191 -6 -220 -47 -239 -32 -15 -394 -15 -426 0 -41 19 -47 48 -47 239
l0 180 260 0 260 0 0 -180z"/>
<path d="M110 360 c0 -60 0 -60 29 -60 41 0 62 23 55 63 -10 54 -12 57 -49 57
l-35 0 0 -60z m50 25 c0 -8 -4 -15 -10 -15 -5 0 -10 7 -10 15 0 8 5 15 10 15
6 0 10 -7 10 -15z m10 -45 c0 -5 -7 -10 -15 -10 -8 0 -15 5 -15 10 0 6 7 10
15 10 8 0 15 -4 15 -10z"/>
<path d="M222 363 l3 -58 38 0 c42 0 52 18 12 23 -22 3 -25 8 -25 48 0 33 -4
44 -15 44 -13 0 -15 -11 -13 -57z"/>
<path d="M332 408 c-7 -7 -12 -29 -12 -50 0 -46 28 -67 66 -49 19 8 24 18 24
49 0 43 -14 62 -45 62 -12 0 -26 -5 -33 -12z m48 -49 c0 -19 -5 -29 -15 -29
-15 0 -22 50 -9 63 12 12 24 -4 24 -34z"/>
<path d="M452 408 c-7 -7 -12 -29 -12 -50 0 -46 28 -67 66 -49 35 15 34 61 -1
61 -14 0 -25 -4 -25 -10 0 -5 5 -10 10 -10 6 0 10 -4 10 -10 0 -5 -7 -10 -16
-10 -11 0 -14 8 -12 33 3 29 6 32 33 29 26 -4 28 -2 16 12 -16 19 -52 21 -69
4z"/>
<path d="M110 245 c0 -12 17 -15 95 -15 78 0 95 3 95 15 0 12 -17 15 -95 15
-78 0 -95 -3 -95 -15z"/>
<path d="M364 246 c-3 -7 -4 -40 -2 -72 l3 -59 83 -3 82 -3 0 76 0 75 -80 0
c-59 0 -82 -4 -86 -14z"/>
<path d="M110 185 c0 -12 17 -15 95 -15 78 0 95 3 95 15 0 12 -17 15 -95 15
-78 0 -95 -3 -95 -15z"/>
<path d="M110 125 c0 -12 17 -15 95 -15 78 0 95 3 95 15 0 12 -17 15 -95 15
-78 0 -95 -3 -95 -15z"/>
</g>
</svg>
